# xmcd
#
# Track frame offsets: 
#        150
#        12406
#        27039
#        37998
#        48019
#        64478
#        77079
#        83711
#        93003
#        111207
#        121038
#        135093
#        149283
#        163595
#        172858
#        181954
#
# Disc length: 2505 seconds
#
# Revision: 0
# Processed by: cddbd v1.5.2PL0 Copyright (c) Steve Scherf et al.
# Submitted via: ExactAudioCopy v1.0b1
#
DISCID=b609c710
DTITLE=Various Artist - David Allen Coe And Friends
DYEAR=1900
DGENRE=Country
TTITLE0=Fuck Anita Bryant
TTITLE1=Asshole Song
TTITLE2=Nigger Fucker
TTITLE3=Fuckin' In The Butt
TTITLE4=Coon Shootin' Boggie
TTITLE5=Pick Em' Lick Em' Stick Em'
TTITLE6=Leroy The Big Lip Nigger
TTITLE7=3 Biggest Lies
TTITLE8=Marijuanaville
TTITLE9=Nigger Hatin' Me
TTITLE10=Some Niggers Never Die
TTITLE11=1 More Time
TTITLE12=Beer Is Good For You
TTITLE13=Run Nigger,Nigger
TTITLE14=Nigger North
TTITLE15=White Man March
EXTD=
EXTT0=
EXTT1=
EXTT2=
EXTT3=
EXTT4=
EXTT5=
EXTT6=
EXTT7=
EXTT8=
EXTT9=
EXTT10=
EXTT11=
EXTT12=
EXTT13=
EXTT14=
EXTT15=
PLAYORDER=
